<svg height="50" viewBox="0 0 53 53" width="50" xmlns="http://www.w3.org/2000/svg" id="giticon"><g fill="none" fill-rule="evenodd" transform=""><path d="m52 26c0-14.359-11.641-26-26-26s-26 11.641-26 26 11.641 26 26 26 26-11.641 26-26" fill="#4baadc"/><path d="m39.9961 12s-2.996 0-7.311 2.789c-2.137-.59-4.413-.789-6.685-.789-2.247 0-4.548.199-6.659.789-5.09-3.451-7.336-2.725-7.336-2.725-1.437 3.651-.543 6.348-.274 7.049-1.703 1.836-2.731 4.215-2.731 7.123 0 10.369 6.441 12.534 12.452 13.155-1.11.759-2.452 2.164-2.452 4.808v6.84c2.228.621 4.573.961 7 .961s4.771-.34 7-.961v-6.84c0-2.644-1.344-4.049-2.452-4.808 6.009-.621 12.452-2.786 12.452-13.155 0-2.908-1.03-5.287-2.734-7.123.27-.701 1.191-3.463-.27-7.113" fill="#fff" /><g stroke="#1e69a0" stroke-linecap="round" stroke-linejoin="round" stroke-width="2"><path d="m52 26c0 14.359-11.641 26-26 26s-26-11.641-26-26 11.641-26 26-26 26 11.641 26 26z"/><path d="m33 51.0391v-6.84c0-2.644-1.344-4.049-2.452-4.808 6.009-.622 12.452-2.786 12.452-13.155 0-2.908-1.03-5.287-2.734-7.123.27-.701 1.191-3.463-.27-7.113 0 0-2.996 0-7.31 2.789-2.138-.59-4.414-.789-6.686-.789-2.247 0-4.548.199-6.659.789-5.09-3.451-7.336-2.725-7.336-2.725-1.437 3.651-.543 6.348-.274 7.049-1.703 1.836-2.731 4.215-2.731 7.123 0 10.369 6.441 12.533 12.452 13.155-1.11.759-2.452 2.164-2.452 4.808v6.84"/></g></g></svg>